<?xml version="1.0" encoding="UTF-8" standalone="no"?>
<!-- Created with Inkscape (http://www.inkscape.org/) -->

<svg
   xmlns:dc="http://purl.org/dc/elements/1.1/"
   xmlns:cc="http://creativecommons.org/ns#"
   xmlns:rdf="http://www.w3.org/1999/02/22-rdf-syntax-ns#"
   xmlns:svg="http://www.w3.org/2000/svg"
   xmlns="http://www.w3.org/2000/svg"
   xmlns:sodipodi="http://sodipodi.sourceforge.net/DTD/sodipodi-0.dtd"
   xmlns:inkscape="http://www.inkscape.org/namespaces/inkscape"
   width="700mm"
   height="600mm"
   viewBox="0 0 700 600"
   version="1.1"
   id="svg358"
   inkscape:version="0.92.2 5c3e80d, 2017-08-06"
   sodipodi:docname="Ritterburg-8-Projection-Hausdach.svg">
  <defs
     id="defs352" />
  <sodipodi:namedview
     id="base"
     pagecolor="#ffffff"
     bordercolor="#666666"
     borderopacity="1.0"
     inkscape:pageopacity="0.0"
     inkscape:pageshadow="2"
     inkscape:zoom="0.35145486"
     inkscape:cx="1322.8346"
     inkscape:cy="1133.8583"
     inkscape:document-units="mm"
     inkscape:current-layer="layer1"
     showgrid="false"
     inkscape:window-width="1920"
     inkscape:window-height="1016"
     inkscape:window-x="0"
     inkscape:window-y="0"
     inkscape:window-maximized="1" />
  <metadata
     id="metadata355">
    <rdf:RDF>
      <cc:Work
         rdf:about="">
        <dc:format>image/svg+xml</dc:format>
        <dc:type
           rdf:resource="http://purl.org/dc/dcmitype/StillImage" />
        <dc:title></dc:title>
      </cc:Work>
    </rdf:RDF>
  </metadata>
  <g
     inkscape:label="Ebene 1"
     inkscape:groupmode="layer"
     id="layer1"
     transform="translate(0,303)">
    <path
       id="path382"
       style="fill:none;stroke:#000000;stroke-width:0.52916664;stroke-miterlimit:4;stroke-dasharray:none;stroke-opacity:1"
       d="m 336.15672,-218.54566 h 152 v 112.00001 h -152 z m -276.000058,76.22899 v 25 h -7.99999 v 25.000017 h 7.99999 v 19.659932 h 67.000018 v 8 h 50.00003 v -8 h 50.00001 v 8 h 50.00001 v -8 h 50 v 8 h 49.99998 v -8 h 50.00001 v 8 h 50 v -8 h 50 v 8 h 50 v -8 h 67 v -10.659985 h 8 v -24.999944 h -8 v -25.00011 h 8 v -24.99991 h -8 v -109.007 h -100 v -8 h -25 v 8 h -25 v -8 h -25 v 8 h -75 v -8 h -25 v 8 h -25.00001 v -8 H 319.1567 v 8 h -74.99997 v -8 h -25 v 8 h -25.00001 v -8 h -25 v 8 H 60.156662 v 100.007 h -7.99999 v 25 z"
       inkscape:connector-curvature="0" />
    <path
       id="path254"
       style="fill:none;stroke:#000000;stroke-width:0.52916664;stroke-miterlimit:4;stroke-dasharray:none;stroke-opacity:1"
       d="M 352.21918,104.23364 V 14.233839 h 120 v 89.999801 z m -175,44.88889 h 50 v 7.99999 h 50 v -7.99999 h 50 v 7.99999 h 50 v -7.99999 h 50 v 7.99999 h 50 v -7.99999 h 50 v 7.99999 h 50 v -7.99999 h 67 v -10.65999 h 8 v -25 h -8 V 88.462539 h 8 v -24.99971 h -8 v -109.00699 h -100.0001 v -7.99999 h -24.9999 v 7.99999 h -25 v -7.99999 h -25 v 7.99999 h -75 v -7.99999 h -25 v 7.99999 h -25 v -7.99999 h -25 v 7.99999 h -75 v -7.99999 h -25 v 7.99999 h -25 v -7.99999 h -25 v 7.99999 H 60.219172 v 100.007 h -8 v 24.99968 h 8 v 25.000011 h -8 v 25 h 8 v 19.66 h 66.999998 v 7.99999 h 50.00001 z"
       inkscape:connector-curvature="0" />
    <path
       id="path100"
       style="fill:none;stroke:#000000;stroke-width:0.52916664;stroke-miterlimit:4;stroke-dasharray:none;stroke-opacity:1"
       d="m 314.72977,266.47378 v -10 h 10 v 10 z m 40,0 v -10 h 10 v 10 z m -20,0 v -10 h 10 v 10 z m -40,0 v -10 h 10 v 10 z m 100,0 v -10 h 10 v 10 z m -20,0 v -10 h 10 v 10 z m 40,0 v -10 h 10 v 10 z m -80,-20 v -10 h 10 v 10 z m 40,0 v -10 h 10 v 10 z m -60,0 v -10 h 10 v 10 z m 80,0 v -10 h 10 v 10 z m -40,0 v -10 h 10 v 10 z m 60,0 v -10 h 10 v 10 z m -120,0 v -10 h 10 v 10 z m 80,-20 v -10 h 10 v 10 z m 20,0 v -10 h 10 v 10 z m -100,0 v -10 h 10 v 10 z m 60,0 v -10 h 10 v 10 z m 60,0 v -10 h 10 v 10 z m -100,0 v -10 h 10 v 10 z m 20,0 v -10 h 10 v 10 z m 40,-20 v -10 h 10 v 10 z m 20,0 v -10 h 10 v 10 z m 20,0 v -10 h 10 v 10 z m -60,0 v -10 h 10 v 10 z m -40,0 v -10 h 10 v 10 z m 20,0 v -10 h 10 v 10 z m -40,0 v -10 h 10 v 10 z m 120,-20 v -10 h 10 v 10 z m -20,0 v -10 h 10 v 10 z m -20,0 v -10 h 10 v 10 z m -20,0 v -10 h 10 v 10 z m -60,0 v -10 h 10 v 10 z m 20,0 v -10 h 10 v 10 z m 20,0 v -10 h 10 v 10 z m 100.00001,-20 H 284.72977 v 110 h 150.00001 z"
       inkscape:connector-curvature="0" />
  </g>
</svg>
