<?xml version="1.0" encoding="UTF-8" standalone="no"?>
<!-- Created with Inkscape (http://www.inkscape.org/) -->

<svg
   xmlns:dc="http://purl.org/dc/elements/1.1/"
   xmlns:cc="http://creativecommons.org/ns#"
   xmlns:rdf="http://www.w3.org/1999/02/22-rdf-syntax-ns#"
   xmlns:svg="http://www.w3.org/2000/svg"
   xmlns="http://www.w3.org/2000/svg"
   xmlns:sodipodi="http://sodipodi.sourceforge.net/DTD/sodipodi-0.dtd"
   xmlns:inkscape="http://www.inkscape.org/namespaces/inkscape"
   width="950mm"
   height="1100mm"
   viewBox="0 0 950 1100"
   version="1.1"
   id="svg1312"
   inkscape:version="0.92.2 5c3e80d, 2017-08-06"
   sodipodi:docname="Ritterburg-8-Projection-Wasser.svg">
  <defs
     id="defs1306" />
  <sodipodi:namedview
     id="base"
     pagecolor="#ffffff"
     bordercolor="#666666"
     borderopacity="1.0"
     inkscape:pageopacity="0.0"
     inkscape:pageshadow="2"
     inkscape:zoom="0.19170265"
     inkscape:cx="1700.7874"
     inkscape:cy="2078.7402"
     inkscape:document-units="mm"
     inkscape:current-layer="layer1"
     showgrid="false"
     inkscape:window-width="1920"
     inkscape:window-height="1016"
     inkscape:window-x="0"
     inkscape:window-y="0"
     inkscape:window-maximized="1" />
  <metadata
     id="metadata1309">
    <rdf:RDF>
      <cc:Work
         rdf:about="">
        <dc:format>image/svg+xml</dc:format>
        <dc:type
           rdf:resource="http://purl.org/dc/dcmitype/StillImage" />
        <dc:title></dc:title>
      </cc:Work>
    </rdf:RDF>
  </metadata>
  <g
     inkscape:label="Ebene 1"
     inkscape:groupmode="layer"
     id="layer1"
     transform="translate(0,803)">
    <path
       inkscape:connector-curvature="0"
       d="m 839.90861,241.82329 6.24999,-0.592 6.21001,-0.982 6.13,-1.371 6.02999,-1.752 5.91002,-2.128 5.76998,-2.495 5.60001,-2.852 5.39999,-3.198 5.20002,-3.531 4.95998,-3.85103 4.71001,-4.15401 4.45,-4.44198 4.14999,-4.71302 3.85,-4.963 3.53002,-5.196 3.19998,-5.408 2.85001,-5.597 2.49999,-5.76598 2.13001,-5.91 1.75,-6.033 1.36999,-6.13101 0.98002,-6.20501 0.58999,-6.25398 0.2,-6.27901 v -819.99999 l -0.2,-6.279 -0.58999,-6.254 -0.98002,-6.205 -1.36999,-6.131 -1.75,-6.033 -2.13001,-5.91 -2.49999,-5.766 -2.85001,-5.597 -3.19998,-5.408 -3.53002,-5.196 -3.85,-4.963 -4.14999,-4.71299 -4.45,-4.44201 -4.71001,-4.154 -4.95998,-3.851 -5.20002,-3.531 -5.39999,-3.198 -5.60001,-2.852 -5.76998,-2.495 -5.91002,-2.12799 -6.02999,-1.75201 -6.13,-1.371 -6.21001,-0.982 -6.24999,-0.59199 -6.27999,-0.19701 h -720 l -6.27999,0.19701 -6.25,0.59199 -6.210003,0.982 -6.13,1.371 -6.03,1.75201 -5.91,2.12799 -5.77,2.495 -5.6,2.852 -5.4,3.198 -5.2,3.531 -4.96,3.851 -4.71,4.154 -4.45,4.44201 -4.15,4.71299 -3.85,4.963 -3.53,5.196 -3.2,5.408 -2.85,5.597 -2.5,5.766 -2.13,5.91 -1.75,6.033 -1.37,6.131 -0.98,6.205 -0.59,6.254 -0.2,6.279 v 819.99999 l 0.2,6.27901 0.59,6.25398 0.98,6.20501 1.37,6.13101 1.75,6.033 2.13,5.91 2.5,5.76598 2.85,5.597 3.2,5.408 3.53,5.196 3.85,4.963 4.15,4.71302 4.45,4.44198 4.71,4.15401 4.96,3.85103 5.2,3.531 5.4,3.198 5.6,2.852 5.77,2.495 5.91,2.128 6.03,1.752 6.13,1.371 6.210003,0.982 6.25,0.592 6.27999,0.197 h 720 z"
       id="path349"
       style="fill:none;stroke:#000000;stroke-width:0.52916664;stroke-miterlimit:4;stroke-dasharray:none;stroke-opacity:1" />
  </g>
</svg>
