<?xml version="1.0" encoding="UTF-8" standalone="no"?>
<!-- Created with Inkscape (http://www.inkscape.org/) -->

<svg
   xmlns:dc="http://purl.org/dc/elements/1.1/"
   xmlns:cc="http://creativecommons.org/ns#"
   xmlns:rdf="http://www.w3.org/1999/02/22-rdf-syntax-ns#"
   xmlns:svg="http://www.w3.org/2000/svg"
   xmlns="http://www.w3.org/2000/svg"
   xmlns:sodipodi="http://sodipodi.sourceforge.net/DTD/sodipodi-0.dtd"
   xmlns:inkscape="http://www.inkscape.org/namespaces/inkscape"
   width="700mm"
   height="600mm"
   viewBox="0 0 700 600"
   version="1.1"
   id="svg294"
   inkscape:version="0.92.2 5c3e80d, 2017-08-06"
   sodipodi:docname="Ritterburg-8-Projection-Aussenwand-Links.svg">
  <defs
     id="defs288" />
  <sodipodi:namedview
     id="base"
     pagecolor="#ffffff"
     bordercolor="#666666"
     borderopacity="1.0"
     inkscape:pageopacity="0.0"
     inkscape:pageshadow="2"
     inkscape:zoom="0.35"
     inkscape:cx="1450.3013"
     inkscape:cy="1091.6144"
     inkscape:document-units="mm"
     inkscape:current-layer="layer1"
     showgrid="false"
     inkscape:window-width="1920"
     inkscape:window-height="1016"
     inkscape:window-x="0"
     inkscape:window-y="0"
     inkscape:window-maximized="1" />
  <metadata
     id="metadata291">
    <rdf:RDF>
      <cc:Work
         rdf:about="">
        <dc:format>image/svg+xml</dc:format>
        <dc:type
           rdf:resource="http://purl.org/dc/dcmitype/StillImage" />
        <dc:title></dc:title>
      </cc:Work>
    </rdf:RDF>
  </metadata>
  <g
     inkscape:label="Ebene 1"
     inkscape:groupmode="layer"
     id="layer1"
     transform="translate(0,303)">
    <path
       id="path208"
       style="fill:none;stroke:#000000;stroke-width:0.52916664;stroke-miterlimit:4;stroke-dasharray:none;stroke-opacity:1"
       d="m 120.40773,-153.98809 h 25.00001 v 8 h -25.00001 z m 150.00002,0 h 25 v 8 h -25 z m 149.99999,0 h 25 v 8 h -25 z m 150,0 h 25 v 8 h -25 z m -509.000003,-75 v 75 h -7.99999 v 25 h 7.99999 v 50.000002 h 9.00001 v -8 h 25.000014 v 8 h 24.999969 v -8 h 25.00001 v 8 h 25 v -8 h 25 v 8 h 25.00001 v -8 h 25 v 8 h 25 v -8 h 25 v 8 h 24.99998 v -8 h 25 v 8 h 25.00001 v -8 h 25 v 8 h 25 v -8 h 25 v 8 h 25 v -8 h 25 v 8 h 25 v -8 h 25 v 8 h 25 v -8 h 25 v 8 h 25 v -8 h 25 v -42.000002 h 8 v -25 h -8 v -75 h 8 v -25 h -8 v -25 H 61.407737 v 25 h -7.99999 v 25 z"
       inkscape:connector-curvature="0" />
    <path
       d="M 61.407737,-6.4880982 V 23.011912 h 58.999993 v 7.99999 h 25.00001 v -7.99999 h 125.00001 v 7.99999 h 25 v -7.99999 h 124.99999 v 7.99999 h 25 v -7.99999 h 125 v 7.99999 h 25 v -7.99999 h 50 V -6.4880982 h 8 V -31.488089 h -8 v -29.499999 h -50 v -8 h -25 v 8 h -125 v -8 h -25 v 8 H 295.40775 v -8 h -25 v 8 H 145.40774 v -8 h -25.00001 v 8 H 61.407737 v 29.499999 h -7.99999 v 24.9999908 z"
       id="path206"
       style="fill:none;stroke:#000000;stroke-width:0.52916664;stroke-miterlimit:4;stroke-dasharray:none;stroke-opacity:1"
       inkscape:connector-curvature="0" />
    <path
       id="path190"
       style="fill:none;stroke:#000000;stroke-width:0.52916664;stroke-miterlimit:4;stroke-dasharray:none;stroke-opacity:1"
       d="m 120.40773,108.0119 h 25.00001 v 8.00002 h -25.00001 z m 150.00002,0 h 25 v 8.00002 h -25 z m 149.99999,0 h 25 v 8.00002 h -25 z m 22.333,41.5 h 8 v 50 h -8 z m 27.667,-41.5 h 25 v 8.00002 h -25 z m 50,0 h 25 v 8.00002 h -25 z m 50,0 h 25 v 8.00002 h -25 z M 61.407737,116.01192 V 241.01191 H 645.40774 V 216.0119 h 8 v -25 h -8 V 49.011902 h -25 v -7.99999 h -25 v 7.99999 h -25 v -7.99999 h -25 v 7.99999 h -25 v -7.99999 h -25 v 7.99999 h -25 v -7.99999 h -25 v 7.99999 h -25 v -7.99999 h -25 v 7.99999 h -25 v -7.99999 h -25.00001 v 7.99999 h -25 v -7.99999 h -24.99998 v 7.99999 h -25 v -7.99999 h -25 v 7.99999 h -25 v -7.99999 h -25.00001 v 7.99999 h -25 v -7.99999 h -25 v 7.99999 h -25.00001 v -7.99999 H 95.407761 v 7.99999 H 70.407747 v -7.99999 h -9.00001 v 50.000002 h -7.99999 v 25.000006 z"
       inkscape:connector-curvature="0" />
  </g>
</svg>
