<?xml version="1.0" encoding="UTF-8" standalone="no"?>
<!-- Created with Inkscape (http://www.inkscape.org/) -->

<svg
   xmlns:dc="http://purl.org/dc/elements/1.1/"
   xmlns:cc="http://creativecommons.org/ns#"
   xmlns:rdf="http://www.w3.org/1999/02/22-rdf-syntax-ns#"
   xmlns:svg="http://www.w3.org/2000/svg"
   xmlns="http://www.w3.org/2000/svg"
   xmlns:sodipodi="http://sodipodi.sourceforge.net/DTD/sodipodi-0.dtd"
   xmlns:inkscape="http://www.inkscape.org/namespaces/inkscape"
   width="600mm"
   height="400mm"
   viewBox="0 0 600 400"
   version="1.1"
   id="svg110"
   inkscape:version="0.92.2 5c3e80d, 2017-08-06"
   sodipodi:docname="Ritterburg-8-Projection-Turm.svg">
  <defs
     id="defs104" />
  <sodipodi:namedview
     id="base"
     pagecolor="#ffffff"
     bordercolor="#666666"
     borderopacity="1.0"
     inkscape:pageopacity="0.0"
     inkscape:pageshadow="2"
     inkscape:zoom="0.35"
     inkscape:cx="977.01123"
     inkscape:cy="560"
     inkscape:document-units="mm"
     inkscape:current-layer="layer1"
     showgrid="false"
     inkscape:window-width="1920"
     inkscape:window-height="1016"
     inkscape:window-x="0"
     inkscape:window-y="0"
     inkscape:window-maximized="1" />
  <metadata
     id="metadata107">
    <rdf:RDF>
      <cc:Work
         rdf:about="">
        <dc:format>image/svg+xml</dc:format>
        <dc:type
           rdf:resource="http://purl.org/dc/dcmitype/StillImage" />
        <dc:title></dc:title>
      </cc:Work>
    </rdf:RDF>
  </metadata>
  <g
     inkscape:label="Ebene 1"
     inkscape:groupmode="layer"
     id="layer1"
     transform="translate(0,103)">
    <path
       d="m 306.74108,10.672613 h 12.5 v 8 h 31.24999 V -1.8273843 h -7.99999 V -26.827384 h 7.99999 v -25.000002 h -7.99999 v -24.999998 h 7.99999 v -12.5 h -31.24999 v -8 h -12.5 v 8 h -23.25002 v 25 h -8 v 49.999998 h 8 v 24.999999 h -8 v 8 h 31.25002 z"
       id="path308"
       style="fill:none;stroke:#000000;stroke-width:0.52916664;stroke-miterlimit:4;stroke-dasharray:none;stroke-opacity:1"
       inkscape:connector-curvature="0" />
    <path
       d="m 400.49108,10.672613 h 12.5 V 2.6726127 h 24.99997 v 8.0000003 h 12.50001 v 8 h 25 v -8 h 7.99999 v -24.999999 h -7.99999 v -12.499998 h -8 v -25.000002 h 8 v -12.499998 h 7.99999 v -25 h -7.99999 v -8 h -25 v 8 h -12.50001 v 8 h -24.99997 v -8 h -12.5 v -8 h -25.00001 v 8 h -7.99999 v 25 h 7.99999 v 12.499998 h 8 v 25.000002 h -8 v 12.499998 h -7.99999 v 24.999999 h 7.99999 v 8 h 25.00001 z"
       id="path306"
       style="fill:none;stroke:#000000;stroke-width:0.52916664;stroke-miterlimit:4;stroke-dasharray:none;stroke-opacity:1"
       inkscape:connector-curvature="0" />
    <path
       d="m 216.74107,10.672613 h 12.5 v 8 h 31.25 V -1.8273843 h -8 V -26.827384 h 8 v -25.000002 h -8 v -24.999998 h 8 v -12.5 h -31.25 v -8 h -12.5 v 8 h -23.25 v 25 h -8 v 49.999998 h 8 v 24.999999 h -8 v 8 h 31.25 z"
       id="path304"
       style="fill:none;stroke:#000000;stroke-width:0.52916664;stroke-miterlimit:4;stroke-dasharray:none;stroke-opacity:1"
       inkscape:connector-curvature="0" />
    <path
       d="m 126.74107,10.672613 h 12.5 v 8 h 31.25 V -1.8273843 h -8 V -26.827384 h 8 v -25.000002 h -8 v -24.999998 h 8 v -12.5 h -31.25 v -8 h -12.5 v 8 h -23.24999 v 25 h -7.999999 v 49.999998 h 7.999999 v 24.999999 h -7.999999 v 8 h 31.249989 z"
       id="path302"
       style="fill:none;stroke:#000000;stroke-width:0.52916664;stroke-miterlimit:4;stroke-dasharray:none;stroke-opacity:1"
       inkscape:connector-curvature="0" />
    <path
       d="m 36.741081,10.672613 h 12.5 v 8 h 31.24999 V -1.8273843 h -7.99999 V -26.827384 h 7.99999 v -25.000002 h -7.99999 v -24.999998 h 7.99999 v -12.5 h -31.24999 v -8 h -12.5 v 8 h -23.25 v 25 H 5.4910814 v 49.999998 H 13.491081 V 10.672613 H 5.4910814 v 8 H 36.741081 Z"
       id="path300"
       style="fill:none;stroke:#000000;stroke-width:0.52916664;stroke-miterlimit:4;stroke-dasharray:none;stroke-opacity:1"
       inkscape:connector-curvature="0" />
    <path
       d="m 557.99105,2.6726127 h 29.50001 V -26.827384 h 8 v -25.000002 h -8 v -29.499998 h -29.50001 v -8 h -24.99997 v 8 h -29.50001 v 29.499998 h -8 v 25.000002 h 8 V 2.6726127 h 29.50001 v 8.0000003 h 24.99997 z"
       id="path298"
       style="fill:none;stroke:#000000;stroke-width:0.52916664;stroke-miterlimit:4;stroke-dasharray:none;stroke-opacity:1"
       inkscape:connector-curvature="0" />
    <path
       id="path282"
       style="fill:none;stroke:#000000;stroke-width:0.52916664;stroke-miterlimit:4;stroke-dasharray:none;stroke-opacity:1"
       d="m 42.991081,148.67262 v -8 h 25 v 8 z m 0.5,-48 0.0888,-2.826004 0.266,-2.814 0.4423,-2.792 0.6167,-2.759 0.7887,-2.715 0.9576,-2.66 1.1227,-2.594 1.2834,-2.519 1.439,-2.433 1.589,-2.338 1.7327,-2.234 1.6731,-1.898 1.6731,1.898 1.7327,2.234 1.589,2.338 1.439,2.433 1.28339,2.519 1.12271,2.594 0.9576,2.66 0.7887,2.715 0.61669,2.759 0.44231,2.792 0.266,2.814 0.0888,2.826004 z m 61.999989,165 h -7.999989 v -25 h 7.999989 v -25 h -7.999989 v -25.00001 h 7.999989 v -24.99999 h -7.999989 v -25 h 7.999989 v -25 H 97.491081 V 90.672616 h 7.999989 v -25 H 97.491081 V 40.672613 h -29.5 v -8 h -25 v 8 H 5.4910814 v 25.000003 h 7.9999996 v 25 H 5.4910814 v 25.000004 h 7.9999996 v 25 H 5.4910814 v 25 h 7.9999996 v 24.99999 H 5.4910814 v 25.00001 h 7.9999996 v 25 H 5.4910814 v 25 h 7.9999996 v 25.00001 h 91.999989 z"
       inkscape:connector-curvature="0" />
    <path
       id="path276"
       style="fill:none;stroke:#000000;stroke-width:0.52916664;stroke-miterlimit:4;stroke-dasharray:none;stroke-opacity:1"
       d="m 372.99108,148.67262 v -8 h 24.99998 v 8 z m 0.49998,-48 0.089,-2.826004 0.26601,-2.814 0.44199,-2.792 0.617,-2.759 0.78799,-2.715 0.958,-2.66 1.123,-2.594 1.28302,-2.519 1.43898,-2.433 1.58901,-2.338 1.733,-2.234 1.67301,-1.898 1.67299,1.898 1.73299,2.234 1.58901,2.338 1.43899,2.433 1.28302,2.519 1.12299,2.594 0.95801,2.66 0.78798,2.715 0.61701,2.759 0.44198,2.792 0.26602,2.814 0.089,2.826004 z m 62,165 h -7.99999 v -25 h 7.99999 v -25 h -7.99999 v -25.00001 h 7.99999 v -24.99999 h -7.99999 v -25 h 7.99999 v -25 h -7.99999 V 90.672616 h 7.99999 v -25 h -7.99999 V 40.672613 h -29.50001 v -8 h -24.99998 v 8 h -37.50001 v 25.000003 h 8 v 25 h -8 v 25.000004 h 8 v 74.99999 h -8 v 25.00001 h 8 v 75.00001 h 91.99999 z"
       inkscape:connector-curvature="0" />
    <path
       id="path270"
       style="fill:none;stroke:#000000;stroke-width:0.52916664;stroke-miterlimit:4;stroke-dasharray:none;stroke-opacity:1"
       d="m 262.99107,165.67262 v -8 h 24.99999 v 8 z m 0,-17 v -8 h -11.5 v -36 h 0.031 l 0.147,-4.651 0.532,-5.629004 0.884,-5.584 1.234,-5.518 1.577,-5.43 1.915,-5.319 2.246,-5.189 2.566,-5.038 2.878,-4.866 3.178,-4.677 3.46599,-4.467 3.346,-3.796003 3.346,3.796003 3.46602,4.467 3.17799,4.677 2.878,4.866 2.56601,5.038 2.246,5.189 1.915,5.319 1.57699,5.43 1.23399,5.518 0.884,5.584 0.532,5.629004 0.147,4.651 h 0.031 v 36 h -11.50001 v 8 z m 62.5,117 h -8 v -25 h 8 v -25 h -8 v -25.00001 h 8 v -24.99999 h -8 v -25 h 8 v -25 h -8 V 90.672616 h 8 v -25 h -8 V 40.672613 h -29.50001 v -8 h -24.99999 v 8 h -37.5 v 25.000003 h 8 v 25 h -8 v 25.000004 h 8 v 74.99999 h -8 v 25.00001 h 8 v 75.00001 h 92 z"
       inkscape:connector-curvature="0" />
    <path
       id="path264"
       style="fill:none;stroke:#000000;stroke-width:0.52916664;stroke-miterlimit:4;stroke-dasharray:none;stroke-opacity:1"
       d="m 152.99107,165.67262 v -8 h 25 v 8 z m 0,-17 v -8 h -11.5 v -36 h 0.031 l 0.147,-4.651 0.532,-5.629004 0.884,-5.584 1.234,-5.518 1.577,-5.43 1.915,-5.319 2.246,-5.189 2.566,-5.038 2.878,-4.866 3.178,-4.677 3.466,-4.467 3.346,-3.796003 3.346,3.796003 3.466,4.467 3.178,4.677 2.878,4.866 2.566,5.038 2.246,5.189 1.915,5.319 1.577,5.43 1.234,5.518 0.884,5.584 0.532,5.629004 0.147,4.651 h 0.031 v 36 h -11.5 v 8 z m 62.5,117 h -8 v -25 h 8 v -25 h -8 v -25.00001 h 8 v -24.99999 h -8 v -25 h 8 v -25 h -8 V 90.672616 h 8 v -25 h -8 V 40.672613 h -29.5 v -8 h -25 v 8 h -37.5 v 25.000003 h 8 v 25 h -8 v 25.000004 h 8 v 74.99999 h -8 v 25.00001 h 8 v 75.00001 h 92 z"
       inkscape:connector-curvature="0" />
  </g>
</svg>
