<?xml version="1.0" encoding="UTF-8" standalone="no"?>
<!-- Created with Inkscape (http://www.inkscape.org/) -->

<svg
   xmlns:dc="http://purl.org/dc/elements/1.1/"
   xmlns:cc="http://creativecommons.org/ns#"
   xmlns:rdf="http://www.w3.org/1999/02/22-rdf-syntax-ns#"
   xmlns:svg="http://www.w3.org/2000/svg"
   xmlns="http://www.w3.org/2000/svg"
   xmlns:sodipodi="http://sodipodi.sourceforge.net/DTD/sodipodi-0.dtd"
   xmlns:inkscape="http://www.inkscape.org/namespaces/inkscape"
   width="700mm"
   height="600mm"
   viewBox="0 0 700 600"
   version="1.1"
   id="svg238"
   inkscape:version="0.92.2 5c3e80d, 2017-08-06"
   sodipodi:docname="Ritterburg-8-Projection-Aussenwand-Hinten.svg">
  <defs
     id="defs232" />
  <sodipodi:namedview
     id="base"
     pagecolor="#ffffff"
     bordercolor="#666666"
     borderopacity="1.0"
     inkscape:pageopacity="0.0"
     inkscape:pageshadow="2"
     inkscape:zoom="0.35"
     inkscape:cx="1430.0714"
     inkscape:cy="1138.552"
     inkscape:document-units="mm"
     inkscape:current-layer="layer1"
     showgrid="false"
     inkscape:window-width="1920"
     inkscape:window-height="1016"
     inkscape:window-x="0"
     inkscape:window-y="0"
     inkscape:window-maximized="1" />
  <metadata
     id="metadata235">
    <rdf:RDF>
      <cc:Work
         rdf:about="">
        <dc:format>image/svg+xml</dc:format>
        <dc:type
           rdf:resource="http://purl.org/dc/dcmitype/StillImage" />
        <dc:title></dc:title>
      </cc:Work>
    </rdf:RDF>
  </metadata>
  <g
     inkscape:label="Ebene 1"
     inkscape:groupmode="layer"
     id="layer1"
     transform="translate(0,303)">
    <path
       id="path52"
       style="fill:none;stroke:#000000;stroke-width:0.52916664;stroke-miterlimit:4;stroke-dasharray:none;stroke-opacity:1"
       d="m 258.69048,-125.57739 v -8 h 25 v 8 z m 150,0 v -8 h 25 v 8 z m 149.99999,0 v -8 h 25 v 8 z m -449.99999,0 v -8 h 25 v 8 z m 150,59.000008 h 25 v 8 h 24.99999 v -8 h 25 v 8 h 25 v -8 h 25.00001 v 8 h 25 v -8 h 25 v 8 h 25.00001 v -8 h 25 v 8 h 24.99997 v -8 h 25.00001 v 8 h 25 v -8 h 25 v 8 h 25.00001 v -8 h 25 v -41.999998 h 7.99999 v -25.00001 h -7.99999 v -74.99999 h 7.99999 v -25 h -7.99999 v -25 H 49.690488 v 25 h -8 v 25 h 8 v 74.99999 h -8 v 25.00001 h 8 v 49.999998 h 8.99999 v -8 h 25.00001 v 8 h 24.999992 v -8 h 25 v 8 h 25 v -8 h 25 v 8 h 25 v -8 h 25 v 8 h 25 z"
       inkscape:connector-curvature="0" />
    <path
       d="m 133.69048,43.422615 h 125 v 7.99999 h 25 v -7.99999 h 125 v 7.99999 h 25 v -7.99999 h 124.99999 v 7.99999 h 25 v -7.99999 h 50.00001 V 13.922607 h 7.99999 v -24.99999 h -7.99999 v -29.5 h -50.00001 v -8 h -25 v 8 H 433.69048 v -8 h -25 v 8 h -125 v -8 h -25 v 8 h -125 v -8 h -25 v 8 H 49.690488 v 29.5 h -8 v 24.99999 h 8 v 29.500008 h 58.999992 v 7.99999 h 25 z"
       id="path44"
       style="fill:none;stroke:#000000;stroke-width:0.52916664;stroke-miterlimit:4;stroke-dasharray:none;stroke-opacity:1"
       inkscape:connector-curvature="0" />
    <path
       id="path20"
       style="fill:none;stroke:#000000;stroke-width:0.52916664;stroke-miterlimit:4;stroke-dasharray:none;stroke-opacity:1"
       d="m 408.69048,136.42262 v -8.00002 h 25 v 8.00002 z m -250,0 v -8.00002 h 25 v 8.00002 z m -50,0 v -8.00002 h 25 v 8.00002 z m 100,0 v -8.00002 h 25 v 8.00002 z m 99.99999,0 v -8.00002 h 25 v 8.00002 z m 150.00002,0 v -8.00002 h 25 v 8.00002 z m -200.00001,0 v -8.00002 h 25 v 8.00002 z m 99.99999,0 v -8.00002 h 25.00001 v 8.00002 z m 275.00001,99.99998 h 7.99999 v -25 h -7.99999 V 69.422605 H 609.69047 V 128.4226 h -26 v 8.00002 h -25 v -8.00002 h -25 v 8.00002 h -25.00001 v -8.00002 h 24.00001 V 69.422605 h -24.00001 v -7.99999 h -24.99997 v 7.99999 h -25 v -7.99999 h -25.00001 v 7.99999 h -25 v -7.99999 h -25 v 7.99999 h -25.00001 v -7.99999 h -25 v 7.99999 h -25 v -7.99999 h -24.99999 v 7.99999 h -25 v -7.99999 h -25 v 7.99999 h -25 v -7.99999 h -25 v 7.99999 h -25 v -7.99999 h -25 v 7.99999 h -25 v -7.99999 H 83.690488 v 7.99999 h -25.00001 v -7.99999 h -8.99999 v 49.999995 h -8 v 25.00001 h 8 V 261.42261 H 633.69048 Z"
       inkscape:connector-curvature="0" />
  </g>
</svg>
