<?xml version="1.0" encoding="UTF-8" standalone="no"?>
<!-- Created with Inkscape (http://www.inkscape.org/) -->

<svg
   xmlns:dc="http://purl.org/dc/elements/1.1/"
   xmlns:cc="http://creativecommons.org/ns#"
   xmlns:rdf="http://www.w3.org/1999/02/22-rdf-syntax-ns#"
   xmlns:svg="http://www.w3.org/2000/svg"
   xmlns="http://www.w3.org/2000/svg"
   xmlns:sodipodi="http://sodipodi.sourceforge.net/DTD/sodipodi-0.dtd"
   xmlns:inkscape="http://www.inkscape.org/namespaces/inkscape"
   width="700mm"
   height="600mm"
   viewBox="0 0 700 600"
   version="1.1"
   id="svg174"
   inkscape:version="0.92.2 5c3e80d, 2017-08-06"
   sodipodi:docname="Ritterburg-8-Projection-Aussenwand-Rechts.svg">
  <defs
     id="defs168" />
  <sodipodi:namedview
     id="base"
     pagecolor="#ffffff"
     bordercolor="#666666"
     borderopacity="1.0"
     inkscape:pageopacity="0.0"
     inkscape:pageshadow="2"
     inkscape:zoom="0.35"
     inkscape:cx="1470.4276"
     inkscape:cy="1129.1645"
     inkscape:document-units="mm"
     inkscape:current-layer="layer1"
     showgrid="false"
     inkscape:window-width="1920"
     inkscape:window-height="1016"
     inkscape:window-x="0"
     inkscape:window-y="0"
     inkscape:window-maximized="1" />
  <metadata
     id="metadata171">
    <rdf:RDF>
      <cc:Work
         rdf:about="">
        <dc:format>image/svg+xml</dc:format>
        <dc:type
           rdf:resource="http://purl.org/dc/dcmitype/StillImage" />
        <dc:title></dc:title>
      </cc:Work>
    </rdf:RDF>
  </metadata>
  <g
     inkscape:label="Ebene 1"
     inkscape:groupmode="layer"
     id="layer1"
     transform="translate(0,303)">
    <path
       d="m 60.273805,11.654742 v 29.50001 h 50.000005 v 7.99999 h 25.00001 v -7.99999 h 124.99999 v 7.99999 h 25 v -7.99999 H 410.2738 v 7.99999 h 25 v -7.99999 h 125 v 7.99999 h 25 v -7.99999 h 59.00001 v -29.50001 h 8 v -24.999985 h -8 v -29.5 H 585.2738 v -8 h -25 v 8 h -125 v -8 h -25 v 8 H 285.27381 v -8 h -25 v 8 h -125 v -8 h -25 v 8 H 60.273805 v 29.5 h -7.99999 v 24.999985 z"
       id="path370"
       style="fill:none;stroke:#000000;stroke-width:0.52916664;stroke-miterlimit:4;stroke-dasharray:none;stroke-opacity:1"
       inkscape:connector-curvature="0" />
    <path
       id="path360"
       style="fill:none;stroke:#000000;stroke-width:0.52916664;stroke-miterlimit:4;stroke-dasharray:none;stroke-opacity:1"
       d="m 110.27382,126.15474 h 25 v 8.00002 h -25 z m 149.99999,0 h 25 v 8.00002 h -25 z m 149.99999,0 h 25 v 8.00002 h -25 z m 150,0 h 25 v 8.00002 h -25 z m -499.999995,8.00002 v 74.99999 h -7.99998 v 25 h 7.99998 v 25.00001 H 644.27381 v -25.00001 h 8 v -25 h -8 v -74.99999 h 8 v -25.00001 h -8 V 59.154752 h -9 v 7.99999 h -25 v -7.99999 H 585.2738 v 7.99999 h -25 v -7.99999 h -25 v 7.99999 h -25 v -7.99999 h -25 v 7.99999 h -25 v -7.99999 h -25 v 7.99999 h -25 v -7.99999 h -24.99999 v 7.99999 h -25 v -7.99999 h -24.99999 v 7.99999 h -25.00001 v -7.99999 h -25 v 7.99999 h -25 v -7.99999 H 235.2738 v 7.99999 h -25 v -7.99999 h -24.99997 v 7.99999 h -25.00001 v -7.99999 h -25 v 7.99999 h -25.00001 v -7.99999 H 85.2738 v 7.99999 H 60.273805 v 42.000008 h -7.99998 v 25.00001 z"
       inkscape:connector-curvature="0" />
    <path
       id="path344"
       style="fill:none;stroke:#000000;stroke-width:0.52916664;stroke-miterlimit:4;stroke-dasharray:none;stroke-opacity:1"
       d="m 110.27381,-135.84524 h 25 v 8 h -25 z m 150,0 h 25 v 8 h -25 z m 149.99999,0 h 25 v 8 h -25 z m 31.333,-83.49999 h 8 v 50 h -8 z m 18.667,83.49999 h 25 v 8 h -25 z m 50,0 h 25 v 8 h -25 z m 50,0 h 25 v 8 h -25 z M 60.273805,-210.84523 V -68.845243 H 85.2738 v 8 h 25.00001 v -8 h 25 v 8 h 25.00001 v -8 h 25.00001 v 8 h 24.99997 v -8 h 25 v 8 h 25.00001 v -8 h 25 v 8 h 25 v -8 h 25.00001 v 8 h 24.99999 v -8 h 25 v 8 h 24.99999 v -8 h 25 v 8 h 25 v -8 h 25 v 8 h 25 v -8 h 25 v 8 h 25 v -8 h 25 v 8 h 25.00001 v -8 h 25 v 8 h 9 v -49.999997 h 8 v -25 h -8 V -260.84523 H 60.273805 v 25 h -7.99999 v 25 z"
       inkscape:connector-curvature="0" />
  </g>
</svg>
