<?xml version="1.0" encoding="UTF-8" standalone="no"?>
<!-- Created with Inkscape (http://www.inkscape.org/) -->

<svg
   xmlns:dc="http://purl.org/dc/elements/1.1/"
   xmlns:cc="http://creativecommons.org/ns#"
   xmlns:rdf="http://www.w3.org/1999/02/22-rdf-syntax-ns#"
   xmlns:svg="http://www.w3.org/2000/svg"
   xmlns="http://www.w3.org/2000/svg"
   xmlns:sodipodi="http://sodipodi.sourceforge.net/DTD/sodipodi-0.dtd"
   xmlns:inkscape="http://www.inkscape.org/namespaces/inkscape"
   width="400mm"
   height="400mm"
   viewBox="0 0 400 400"
   version="1.1"
   id="svg510"
   inkscape:version="0.92.2 5c3e80d, 2017-08-06"
   sodipodi:docname="Ritterburg-8-Projection-Treppenteile-Zugbrücke.svg">
  <defs
     id="defs504" />
  <sodipodi:namedview
     id="base"
     pagecolor="#ffffff"
     bordercolor="#666666"
     borderopacity="1.0"
     inkscape:pageopacity="0.0"
     inkscape:pageshadow="2"
     inkscape:zoom="0.34021925"
     inkscape:cx="1145.9818"
     inkscape:cy="1121.8197"
     inkscape:document-units="mm"
     inkscape:current-layer="layer1"
     showgrid="false"
     inkscape:window-width="1680"
     inkscape:window-height="1026"
     inkscape:window-x="1920"
     inkscape:window-y="0"
     inkscape:window-maximized="1" />
  <metadata
     id="metadata507">
    <rdf:RDF>
      <cc:Work
         rdf:about="">
        <dc:format>image/svg+xml</dc:format>
        <dc:type
           rdf:resource="http://purl.org/dc/dcmitype/StillImage" />
        <dc:title></dc:title>
      </cc:Work>
    </rdf:RDF>
  </metadata>
  <g
     inkscape:label="Ebene 1"
     inkscape:groupmode="layer"
     id="layer1"
     transform="translate(0,103)">
    <path
       d="m 237.10672,62.298821 v -150 H 137.1069 v 150 z"
       id="path388"
       style="fill:none;stroke:#000000;stroke-width:0.52916664;stroke-miterlimit:4;stroke-dasharray:none;stroke-opacity:1"
       inkscape:connector-curvature="0" />
    <path
       d="m 356.69133,103.27747 v 30 h -52.00002 l -3.76698,0.11799 -3.753,0.355 -3.72301,0.59001 -3.678,0.82199 -3.62,1.05201 -3.546,1.276 -3.46001,1.497 -3.35799,1.71201 -3.245,1.91798 -3.11701,2.119 -2.97799,2.30999 -2.828,2.49301 -2.66499,2.665 -2.49301,2.82799 -2.30999,2.97803 -2.119,3.117 -1.91802,3.24498 -1.71198,3.35802 -1.49702,3.46 -1.276,3.546 -1.05199,3.61997 -0.822,3.67801 -0.59,3.723 -0.35499,3.75301 -0.118,3.76702 0.118,3.767 0.35499,3.75299 0.59,3.723 0.822,3.678 1.05199,3.61999 1.276,3.546 1.49702,3.46001 1.71198,3.35799 1.91802,3.24501 2.119,3.117 2.30999,2.97799 2.49301,2.828 2.66499,2.66499 2.828,2.49301 2.97799,2.31 3.11701,2.11899 3.245,1.91802 3.35799,1.71199 3.46001,1.49701 3.546,1.276 3.62,1.05199 3.678,0.822 3.72301,0.59 3.753,0.35499 3.76698,0.118 h 52.00002 v 30.00002 h 8 V 103.27747 Z"
       id="path172"
       style="fill:none;stroke:#000000;stroke-width:0.52916664;stroke-miterlimit:4;stroke-dasharray:none;stroke-opacity:1"
       inkscape:connector-curvature="0" />
    <path
       id="path78"
       style="fill:none;stroke:#000000;stroke-width:0.52916664;stroke-miterlimit:4;stroke-dasharray:none;stroke-opacity:1"
       d="m 309.85207,-53.31841 0.035,-0.37502 0.059,-0.372 0.082,-0.36799 0.10599,-0.362 0.127,-0.35499 0.15,-0.34602 0.171,-0.336 0.192,-0.32398 0.21201,-0.31202 0.23099,-0.298 0.249,-0.28199 0.26701,-0.267 0.282,-0.249 0.298,-0.231 0.31199,-0.21201 0.32401,-0.19199 0.336,-0.171 0.34599,-0.15001 0.35502,-0.127 0.36198,-0.10499 0.368,-0.083 0.37201,-0.059 0.37499,-0.035 0.37701,-0.0119 0.377,0.0119 0.375,0.035 0.372,0.059 0.36801,0.083 0.36198,0.10499 0.35501,0.127 0.346,0.15001 0.33599,0.171 0.32401,0.19199 0.312,0.21201 0.298,0.231 0.28199,0.249 0.26702,0.267 0.249,0.28199 0.23098,0.298 0.21201,0.31202 0.19201,0.32398 0.171,0.336 0.14999,0.34602 0.127,0.35499 0.10499,0.362 0.083,0.36799 0.059,0.372 0.035,0.37502 0.0119,0.37698 -0.0119,0.377 -0.035,0.375 -0.059,0.372 -0.083,0.36801 -0.10499,0.362 -0.127,0.355 -0.14999,0.34599 -0.171,0.336 -0.19201,0.324 -0.21201,0.312 -0.23098,0.298 -0.249,0.28202 -0.26702,0.26699 -0.28199,0.249 -0.298,0.23101 -0.312,0.21198 -0.32401,0.19201 -0.33599,0.171 -0.346,0.14999 -0.35501,0.127 -0.36198,0.106 -0.36801,0.082 -0.372,0.059 -0.375,0.035 -0.377,0.0119 -0.37701,-0.0119 -0.37499,-0.035 -0.37201,-0.059 -0.368,-0.082 -0.36198,-0.106 -0.35502,-0.127 -0.34599,-0.14999 -0.336,-0.171 -0.32401,-0.19201 -0.31199,-0.21198 -0.298,-0.23101 -0.282,-0.249 -0.26701,-0.26699 -0.249,-0.28202 -0.23099,-0.298 -0.21201,-0.312 -0.192,-0.324 -0.171,-0.336 -0.15,-0.34599 -0.127,-0.355 -0.10599,-0.362 -0.082,-0.36801 -0.059,-0.372 -0.035,-0.375 -0.0119,-0.377 z m 28.98799,132.587976 v -45.21101 h 8.00001 V -15.94141 h -8.00001 l 0,-50 h -49.99998 z"
       inkscape:connector-curvature="0" />
    <path
       id="path64"
       style="fill:none;stroke:#000000;stroke-width:0.52916664;stroke-miterlimit:4;stroke-dasharray:none;stroke-opacity:1"
       d="m 305.12796,66.646566 -0.035,0.37502 -0.059,0.372 -0.083,0.36799 -0.10491,0.362 -0.127,0.35499 -0.14999,0.34602 -0.171,0.336 -0.19201,0.32398 -0.21201,0.31202 -0.23098,0.298 -0.249,0.28199 -0.26701,0.267 -0.282,0.249 -0.298,0.231 -0.31199,0.21201 -0.32401,0.19199 -0.336,0.171 -0.34599,0.15001 -0.35499,0.127 -0.36201,0.10499 -0.36801,0.083 -0.372,0.059 -0.37499,0.035 -0.37701,0.0119 -0.377,-0.0119 -0.375,-0.035 -0.372,-0.059 -0.36798,-0.083 -0.36201,-0.10499 -0.35502,-0.127 -0.34599,-0.15001 -0.336,-0.171 -0.324,-0.19199 -0.312,-0.21201 -0.298,-0.231 -0.28199,-0.249 -0.267,-0.267 -0.24899,-0.28199 -0.23101,-0.298 -0.21201,-0.31202 -0.19198,-0.32398 -0.171,-0.336 -0.15002,-0.34602 -0.127,-0.35499 -0.10499,-0.362 -0.083,-0.36799 -0.059,-0.372 -0.035,-0.37502 -0.0119,-0.37698 0.0119,-0.377 0.035,-0.375 0.059,-0.372 0.083,-0.36801 0.10499,-0.362 0.127,-0.355 0.15002,-0.34599 0.171,-0.336 0.19198,-0.324 0.21201,-0.312 0.23101,-0.298 0.24899,-0.28202 0.267,-0.26699 0.28199,-0.249 0.298,-0.23101 0.312,-0.21198 0.324,-0.19201 0.336,-0.171 0.34599,-0.14999 0.35502,-0.127 0.36201,-0.106 0.36798,-0.082 0.372,-0.059 0.375,-0.035 0.377,-0.0119 0.37701,0.0119 0.37499,0.035 0.372,0.059 0.36801,0.082 0.36201,0.106 0.35499,0.127 0.34599,0.14999 0.336,0.171 0.32401,0.19201 0.31199,0.21198 0.298,0.23101 0.282,0.249 0.26701,0.26699 0.249,0.28202 0.23098,0.298 0.21201,0.312 0.19201,0.324 0.171,0.336 0.14999,0.34599 0.127,0.355 0.10491,0.362 0.083,0.36801 0.059,0.372 0.035,0.375 0.0119,0.377 z M 276.13997,-65.94141 v 45.21101 h -7.99999 v 49.999966 h 7.99999 v 50 h 50.00001 z"
       inkscape:connector-curvature="0" />
    <path
       d="M 237.92871,284.19018 V 84.190177 H 137.92872 V 284.19018 Z"
       id="path50"
       style="fill:none;stroke:#000000;stroke-width:0.52916664;stroke-miterlimit:4;stroke-dasharray:none;stroke-opacity:1"
       inkscape:connector-curvature="0" />
    <path
       d="M 121.60696,284.97917 V 59.979153 H 21.606932 V 284.97917 Z"
       id="path38"
       style="fill:none;stroke:#000000;stroke-width:0.52916664;stroke-miterlimit:4;stroke-dasharray:none;stroke-opacity:1"
       inkscape:connector-curvature="0" />
  </g>
</svg>
